<svg aria-hidden="true" style="position: absolute; width: 0; height: 0; overflow: hidden;" version="1.1"
  xmlns="http://www.w3.org/2000/svg" xmlns:xlink="http://www.w3.org/1999/xlink">
  <defs>
    <symbol id="iconArrowLeft" viewBox="0 0 32 32">
      <path stroke-linejoin="round" stroke-linecap="round" stroke-miterlimit="4" stroke-width="2"
        d="M5.333 16h21.333M5.333 16l8-8M5.333 16l8 8"></path>
    </symbol>
    <symbol id="iconCamera" viewBox="0 0 32 32">
      <path stroke-linejoin="round" stroke-linecap="butt" stroke-miterlimit="4" stroke-width="2"
        d="M16 21.333c2.209 0 4-1.791 4-4s-1.791-4-4-4c-2.209 0-4 1.791-4 4s1.791 4 4 4z"></path>
      <path stroke-linejoin="round" stroke-linecap="butt" stroke-miterlimit="4" stroke-width="2"
        d="M4 12c0-1.473 1.194-2.667 2.667-2.667h3.333c0.736 0 1.333-0.597 1.333-1.333s0.597-1.333 1.333-1.333h6.667c0.736 0 1.333 0.597 1.333 1.333s0.597 1.333 1.333 1.333h3.333c1.473 0 2.667 1.194 2.667 2.667v10.667c0 1.473-1.194 2.667-2.667 2.667h-18.667c-1.473 0-2.667-1.194-2.667-2.667v-10.667z">
      </path>
    </symbol>
    <symbol id="iconCheck" viewBox="0 0 32 32">
      <path stroke-linejoin="round" stroke-linecap="round" stroke-miterlimit="4" stroke-width="2"
        d="M26.667 9.333l-14.667 14.667-6.667-6.667"></path>
    </symbol>
    <symbol id="iconCheckRound" viewBox="0 0 32 32">
      <path stroke-linejoin="round" stroke-linecap="round" stroke-miterlimit="4" stroke-width="2"
        d="M22.667 12l-9.333 9.333-4-4M10.667 26.667h10.667c2.945 0 5.333-2.388 5.333-5.333v-10.667c0-2.946-2.388-5.333-5.333-5.333h-10.667c-2.946 0-5.333 2.388-5.333 5.333v10.667c0 2.945 2.388 5.333 5.333 5.333z">
      </path>
    </symbol>
    <symbol id="iconChevronDown" viewBox="0 0 32 32">
      <path stroke-linejoin="round" stroke-linecap="round" stroke-miterlimit="4" stroke-width="2"
        d="M5.333 12l10.667 10.667 10.667-10.667"></path>
    </symbol>
    <symbol id="iconChevronUp" viewBox="0 0 32 32">
      <path stroke-linejoin="round" stroke-linecap="round" stroke-miterlimit="4" stroke-width="2"
        d="M26.667 20l-10.667-10.667-10.667 10.667"></path>
    </symbol>
    <symbol id="iconClock" viewBox="0 0 32 32">
      <path stroke-linejoin="round" stroke-linecap="round" stroke-miterlimit="4" stroke-width="1.92"
        d="M16.33 9.6v6.4l3.84 3.84M27.85 16c0 6.362-5.158 11.52-11.52 11.52s-11.52-5.158-11.52-11.52c0-6.362 5.158-11.52 11.52-11.52s11.52 5.158 11.52 11.52z">
      </path>
    </symbol>
    <symbol id="iconCross" viewBox="0 0 32 32">
      <path stroke-linejoin="round" stroke-linecap="round" stroke-miterlimit="4" stroke-width="2"
        d="M25.333 6.667l-18.667 18.667M6.667 6.667l18.667 18.667"></path>
    </symbol>
    <symbol id="iconCross" viewBox="0 0 32 32">
      <path stroke-linejoin="round" stroke-linecap="round" stroke-miterlimit="4" stroke-width="2"
        d="M21.333 10.667l-10.667 10.667M10.667 10.667l10.667 10.667"></path>
    </symbol>
    <symbol id="iconEdit" viewBox="0 0 32 32">
      <path
        d="M6.667 20.941l-0.707-0.707c-0.188 0.187-0.293 0.442-0.293 0.707h1zM20.941 6.667l0.707-0.707c-0.391-0.391-1.024-0.391-1.414 0l0.707 0.707zM25.333 11.059l0.707 0.707c0.391-0.391 0.391-1.024 0-1.414l-0.707 0.707zM11.059 25.333v1c0.265 0 0.52-0.105 0.707-0.293l-0.707-0.707zM6.667 25.333h-1c0 0.552 0.448 1 1 1v-1zM15.451 24.333c-0.552 0-1 0.448-1 1s0.448 1 1 1v-2zM24.784 26.333c0.552 0 1-0.448 1-1s-0.448-1-1-1v2zM7.374 21.648l14.274-14.274-1.414-1.414-14.275 14.275 1.414 1.414zM20.234 7.374l4.392 4.392 1.414-1.414-4.392-4.392-1.414 1.414zM24.626 10.352l-14.275 14.275 1.414 1.414 14.274-14.274-1.414-1.414zM11.059 24.333h-4.392v2h4.392v-2zM7.667 25.333v-4.392h-2v4.392h2zM16.94 10.668l4.392 4.392 1.414-1.414-4.392-4.392-1.414 1.414zM15.451 26.333h9.333v-2h-9.333v2z">
      </path>
    </symbol>
    <symbol id="iconEyeClosed" viewBox="0 0 32 32">
      <path stroke-linejoin="round" stroke-linecap="round" stroke-miterlimit="4" stroke-width="2"
        d="M13.019 7.060c0.936-0.251 1.931-0.394 2.981-0.394 8.485 0 13.333 9.333 13.333 9.333s-1.105 2.128-3.184 4.351M5.799 11.704c-2.045 2.203-3.132 4.296-3.132 4.296s4.848 9.333 13.333 9.333c1.069 0 2.081-0.148 3.033-0.407M15.333 19.945c-1.446-0.243-2.628-1.26-3.106-2.611M16.667 12.055c1.675 0.281 2.997 1.603 3.278 3.278M4 4l24 24">
      </path>
    </symbol>
    <symbol id="iconEyeOpen" viewBox="0 0 32 32">
      <path stroke-linejoin="round" stroke-linecap="round" stroke-miterlimit="4" stroke-width="2"
        d="M2.667 16c0 0 4.848-9.333 13.333-9.333s13.333 9.333 13.333 9.333-4.849 9.333-13.333 9.333c-8.485 0-13.333-9.333-13.333-9.333z">
      </path>
      <path stroke-linejoin="round" stroke-linecap="round" stroke-miterlimit="4" stroke-width="2"
        d="M16 20c2.209 0 4-1.791 4-4s-1.791-4-4-4c-2.209 0-4 1.791-4 4s1.791 4 4 4z"></path>
    </symbol>
    <symbol id="iconFemale" viewBox="0 0 32 32">
      <path stroke-linejoin="round" stroke-linecap="round" stroke-miterlimit="4" stroke-width="1.92"
        d="M16.33 17.28c3.535 0 6.4-2.865 6.4-6.4s-2.865-6.4-6.4-6.4c-3.535 0-6.4 2.865-6.4 6.4s2.865 6.4 6.4 6.4zM16.33 17.28v10.24M12.49 23.68h7.68">
      </path>
    </symbol>
    <symbol id="iconFilters2" viewBox="0 0 32 32">
      <path stroke-linejoin="miter" stroke-linecap="round" stroke-miterlimit="4" stroke-width="2"
        d="M18.667 6.667c0-1.473-1.194-2.667-2.667-2.667s-2.667 1.194-2.667 2.667M18.667 6.667c0 1.473-1.194 2.667-2.667 2.667s-2.667-1.194-2.667-2.667M18.667 6.667h8M13.333 6.667h-8M21.333 16c0 1.473 1.194 2.667 2.667 2.667s2.667-1.194 2.667-2.667c0-1.473-1.194-2.667-2.667-2.667s-2.667 1.194-2.667 2.667zM21.333 16h-16M10.667 25.333c0-1.473-1.194-2.667-2.667-2.667s-2.667 1.194-2.667 2.667c0 1.473 1.194 2.667 2.667 2.667s2.667-1.194 2.667-2.667zM10.667 25.333h16">
      </path>
    </symbol>
    <symbol id="iconFilters3" viewBox="0 0 32 32">
      <path stroke-linejoin="round" stroke-linecap="round" stroke-miterlimit="4" stroke-width="1.92"
        d="M6.090 5.76l6.4 10.24v7.68l7.68 3.84v-11.52l6.4-10.24h-20.48z"></path>
    </symbol>
    <symbol id="iconHeart" viewBox="0 0 32 32">
      <path stroke-linejoin="round" stroke-linecap="round" stroke-miterlimit="4" stroke-width="2"
        d="M5.775 16.063l10.225 10.603 10.225-10.603c1.137-1.179 1.775-2.777 1.775-4.444 0-3.471-2.714-6.285-6.061-6.285-1.607 0-3.149 0.662-4.286 1.841l-1.653 1.715-1.653-1.715c-1.137-1.179-2.678-1.841-4.286-1.841-3.347 0-6.061 2.814-6.061 6.285 0 1.667 0.639 3.266 1.775 4.444z">
      </path>
    </symbol>
    <symbol id="iconLocation" viewBox="0 0 32 32">
      <path stroke-linejoin="round" stroke-linecap="round" stroke-miterlimit="4" stroke-width="1.92"
        d="M26.57 14.72c0 5.655-4.585 10.24-10.24 12.8-5.655-2.56-10.24-7.145-10.24-12.8s4.585-10.24 10.24-10.24c5.655 0 10.24 4.585 10.24 10.24z">
      </path>
      <path stroke-linejoin="round" stroke-linecap="round" stroke-miterlimit="4" stroke-width="1.92"
        d="M20.17 14.72c0 2.121-1.719 3.84-3.84 3.84s-3.84-1.719-3.84-3.84c0-2.121 1.719-3.84 3.84-3.84s3.84 1.719 3.84 3.84z">
      </path>
    </symbol>
    <symbol id="iconLogout" viewBox="0 0 32 32">
      <path stroke-linejoin="round" stroke-linecap="round" stroke-miterlimit="4" stroke-width="2"
        d="M18.667 5.333h5.333c1.473 0 2.667 1.194 2.667 2.667v16c0 1.473-1.194 2.667-2.667 2.667h-5.333M4 16h16M4 16l5.333-5.333M4 16l5.333 5.333">
      </path>
    </symbol>
    <symbol id="iconMale" viewBox="0 0 32 32">
      <path stroke-linejoin="round" stroke-linecap="round" stroke-miterlimit="4" stroke-width="1.92"
        d="M16.33 14.72c-3.535 0-6.4 2.865-6.4 6.4s2.865 6.4 6.4 6.4c3.535 0 6.4-2.865 6.4-6.4s-2.865-6.4-6.4-6.4zM16.33 14.72v-10.24M16.33 4.48l5.12 5.12M16.33 4.48l-5.12 5.12">
      </path>
    </symbol>
    <symbol id="iconMenuHamburger" viewBox="0 0 32 32">
      <path stroke-linejoin="round" stroke-linecap="round" stroke-miterlimit="4" stroke-width="2"
        d="M5.333 9.333h21.333M5.333 16h21.333M5.333 22.667h21.333"></path>
    </symbol>
    <symbol id="iconPaw" viewBox="0 0 32 32">
      <path
        d="M20.482 19.149c-0.356-2.644-2.011-4.897-4.429-6.024s-5.208-0.948-7.462 0.479l-5.432 3.439c-0.901 0.571-1.58 1.399-1.964 2.394s-0.436 2.065-0.15 3.093c0.286 1.028 0.882 1.918 1.725 2.573s1.852 1.014 2.919 1.037l0.070 0.001c2.676 0.079 5.219 1.275 6.986 3.289 0.456 0.519 1.004 0.93 1.617 1.216 0.333 0.155 0.686 0.274 1.053 0.353 1.043 0.224 2.108 0.109 3.080-0.332s1.757-1.169 2.274-2.103c0.516-0.934 0.714-1.987 0.572-3.044l-0.857-6.372zM17.717 28.961c-1.236 0.562-2.668 0.254-3.563-0.766-1.064-1.213-2.364-2.177-3.801-2.848-1.436-0.67-3.010-1.045-4.622-1.081l-0.046-0.001c-1.338-0.049-2.473-0.942-2.833-2.236-0.363-1.308 0.164-2.674 1.31-3.401l5.432-3.439c1.712-1.084 3.829-1.22 5.665-0.364s3.093 2.566 3.363 4.574l0.857 6.372c0.181 1.346-0.528 2.628-1.763 3.19z">
      </path>
      <path
        d="M6.295 12.527c1.103 0.077 2.165-0.346 2.991-1.19 0.786-0.803 1.264-1.901 1.346-3.091s-0.241-2.342-0.909-3.246c-0.702-0.949-1.696-1.514-2.798-1.59-2.216-0.154-4.161 1.766-4.336 4.281-0.137 2.003 0.89 3.786 2.433 4.506 0.394 0.184 0.822 0.298 1.272 0.329zM4.461 7.821c0.103-1.482 1.151-2.621 2.336-2.539 0.214 0.015 0.422 0.069 0.618 0.161 0.302 0.141 0.576 0.369 0.8 0.673 0.403 0.546 0.597 1.257 0.546 2.002s-0.341 1.423-0.816 1.908c-0.435 0.444-0.975 0.668-1.52 0.63l-0.001 0c-1.184-0.081-2.064-1.353-1.963-2.835z">
      </path>
      <path
        d="M14.188 11.529c2.349 1.095 5.275-0.191 6.523-2.867s0.353-5.746-1.996-6.841c-2.349-1.095-5.275 0.191-6.523 2.868s-0.352 5.745 1.996 6.84zM17.923 3.521c1.411 0.658 1.9 2.609 1.089 4.348s-2.619 2.618-4.031 1.96-1.9-2.608-1.089-4.347c0.811-1.739 2.619-2.619 4.031-1.961z">
      </path>
      <path
        d="M20.992 16.152l0 0c0.305 0.288 0.647 0.518 1.014 0.689 1.713 0.799 3.964 0.33 5.495-1.289 0.881-0.932 1.401-2.109 1.463-3.315 0.065-1.262-0.371-2.404-1.23-3.217s-2.025-1.184-3.281-1.047c-1.201 0.131-2.347 0.716-3.227 1.648-1.858 1.966-1.963 4.896-0.234 6.531zM22.588 10.909c0.575-0.609 1.309-0.989 2.067-1.071 0.701-0.076 1.337 0.118 1.79 0.546s0.682 1.052 0.645 1.756c-0.039 0.761-0.378 1.516-0.953 2.124-1.148 1.215-2.878 1.45-3.857 0.525-0.978-0.925-0.84-2.665 0.308-3.88z">
      </path>
      <path
        d="M30.227 19.769l-0-0.001c-1.062-1.952-3.726-2.563-5.94-1.362-2.213 1.203-3.152 3.77-2.093 5.721 0.386 0.712 0.986 1.246 1.699 1.579 1.243 0.58 2.833 0.548 4.241-0.215 2.213-1.203 3.152-3.769 2.093-5.722zM27.239 23.842c-1.307 0.709-2.831 0.435-3.397-0.609-0.566-1.043 0.035-2.469 1.339-3.178 0.867-0.47 1.83-0.508 2.545-0.174 0.362 0.169 0.661 0.433 0.852 0.784 0.565 1.044-0.036 2.469-1.339 3.178z">
      </path>
    </symbol>
    <symbol id="iconPlus" viewBox="0 0 32 32">
      <path stroke-linejoin="miter" stroke-linecap="round" stroke-miterlimit="4" stroke-width="1.1"
        d="M16 26.667v-10.667M16 16v-10.667M16 16h10.667M16 16h-10.667"></path>
    </symbol>
    <symbol id="iconPlusAvatar" viewBox="0 0 32 32">
      <path stroke-linejoin="miter" stroke-linecap="round" stroke-miterlimit="4" stroke-width="1.5"
        d="M16 26.667v-10.667M16 16v-10.667M16 16h10.667M16 16h-10.667"></path>
    </symbol>
    <symbol id="iconPlusSmall" viewBox="0 0 32 32">
      <path stroke-linejoin="round" stroke-linecap="round" stroke-miterlimit="4" stroke-width="2"
        d="M16 9.333v13.333M9.333 16h13.333"></path>
    </symbol>
    <symbol id="iconRound" viewBox="0 0 32 32">
      <path stroke-linejoin="round" stroke-linecap="butt" stroke-miterlimit="4" stroke-width="2"
        d="M5.333 10.667c0-2.946 2.388-5.333 5.333-5.333h10.667c2.945 0 5.333 2.388 5.333 5.333v10.667c0 2.945-2.388 5.333-5.333 5.333h-10.667c-2.946 0-5.333-2.388-5.333-5.333v-10.667z">
      </path>
    </symbol>
    <symbol id="iconSearch" viewBox="0 0 32 32">
      <path
        d="M25.96 27.374c0.391 0.391 1.024 0.391 1.414 0s0.391-1.024 0-1.414l-1.414 1.414zM23 14c0 4.971-4.029 9-9 9v2c6.075 0 11-4.925 11-11h-2zM14 23c-4.971 0-9-4.029-9-9h-2c0 6.075 4.925 11 11 11v-2zM5 14c0-4.971 4.029-9 9-9v-2c-6.075 0-11 4.925-11 11h2zM14 5c4.971 0 9 4.029 9 9h2c0-6.075-4.925-11-11-11v2zM27.374 25.96l-5.583-5.583-1.414 1.414 5.583 5.583 1.414-1.414z">
      </path>
    </symbol>
    <symbol id="iconTrash" viewBox="0 0 32 32">
      <path stroke-linejoin="round" stroke-linecap="round" stroke-miterlimit="4" stroke-width="2"
        d="M24 8v16c0 1.473-1.194 2.667-2.667 2.667h-10.667c-1.473 0-2.667-1.194-2.667-2.667v-16M20 8v-1.333c0-1.473-1.194-2.667-2.667-2.667h-2.667c-1.473 0-2.667 1.194-2.667 2.667v1.333M5.333 8h21.333M13.333 13.333v8M18.667 13.333v8">
      </path>
    </symbol>
    <symbol id="iconUser" viewBox="0 0 32 32">
      <path stroke-linejoin="miter" stroke-linecap="butt" stroke-miterlimit="4" stroke-width="1.7143"
        d="M16 0.857c8.363 0 15.143 6.78 15.143 15.143s-6.78 15.143-15.143 15.143c-8.363 0-15.143-6.78-15.143-15.143s6.78-15.143 15.143-15.143z">
      </path>
      <path stroke-linejoin="round" stroke-linecap="round" stroke-miterlimit="4" stroke-width="1.7143"
        d="M25.143 27.429v-2.286c0-2.525-2.047-4.571-4.571-4.571h-9.143c-2.525 0-4.571 2.047-4.571 4.571v2.286M20.571 11.429c0 2.525-2.047 4.571-4.571 4.571s-4.571-2.047-4.571-4.571c0-2.525 2.047-4.571 4.571-4.571s4.571 2.047 4.571 4.571z">
      </path>
    </symbol>
    <symbol id="icon-logo" viewBox="0 0 186 32">
      <path fill="#303030" style="fill: var(--color1, #303030)"
        d="M4.050 29.358c-2.096-0.286-3.37-1.392-3.821-3.322l0.035-0.394 0.32-0.963c0.12-0.405 0.251-0.798 0.394-1.179 0.155-0.425 0.399-0.784 0.713-1.070l0.002-0.002c0.070-0.214 0.202-0.534 0.392-0.963 0.214-0.453 0.56-1.12 1.037-2 0.381-0.691 0.678-1.238 0.893-1.643 0.237-0.405 0.429-0.714 0.571-0.928-0.279-0.481-0.611-0.893-0.996-1.248l-0.004-0.003c-0.381-0.714-0.715-1.392-1-2.035-0.194-0.46-0.401-1.054-0.577-1.661l-0.031-0.125c-0.030-0.635-0.132-1.233-0.298-1.805l0.014 0.054-0.214-0.928c-0.068-0.286-0.107-0.614-0.107-0.951 0-0.005 0-0.009 0-0.014v0.001c-0.102-0.185-0.188-0.399-0.247-0.624l-0.004-0.019 0.070-0.427c0.12-0.192 0.144-0.442 0.072-0.752-0.056-0.386-0.131-0.723-0.228-1.051l0.013 0.053c-0.072-0.31-0.144-0.632-0.214-0.965-0.029-0.205-0.046-0.441-0.046-0.681 0-0.124 0.004-0.247 0.013-0.369l-0.001 0.016c0.026-0.355 0.115-0.683 0.257-0.982l-0.007 0.017c0.166-0.309 0.44-0.571 0.821-0.786l0.358-0.25 0.357 0.214c0.261 0.166 0.512 0.309 0.75 0.429l0.714 0.357c0.286 0.144 0.571 0.298 0.858 0.464 0.285 0.144 0.595 0.309 0.928 0.499l0.357 0.251-0.035 0.392c0.007 0.138 0.060 0.261 0.145 0.357l-0.001-0.001 0.392 0.107 0.035 0.501v0.429c0 0.214 0.013 0.368 0.035 0.464 0.037 0.096 0.086 0.178 0.145 0.251l-0.001-0.002 0.178 0.464c0 0.429 0.037 0.81 0.107 1.144 0.072 0.333 0.155 0.666 0.251 1 0.118 0.333 0.213 0.678 0.285 1.035 0.072 0.333 0.083 0.702 0.035 1.107 0.165-0.087 0.306-0.194 0.428-0.32l0-0 0.144-0.144 0.213-0.144 2.501-3.392-0.072-0.429 0.893-0.858c0.259-0.207 0.48-0.394 0.696-0.586l-0.017 0.015c0.214-0.214 0.394-0.453 0.536-0.714l0.214-0.322c1.072-1.429 2.453-2.31 4.144-2.643l0.606-0.144 0.179 0.573c0.118 0.333 0.344 0.63 0.678 0.893 0.357 0.238 0.738 0.477 1.142 0.714l0.392 0.251c0.144 0.285 0.214 0.499 0.214 0.642 0 0.144-0.011 0.262-0.035 0.358l0.179 0.464c-0.262 0.69-0.547 1.19-0.858 1.499-0.309 0.286-0.63 0.56-0.965 0.822-0.259 0.212-0.492 0.423-0.714 0.643l0-0c-0.204 0.201-0.372 0.437-0.495 0.699l-0.006 0.015-0.285 0.357c-0.595 0.31-0.976 0.762-1.142 1.357l-0.144 0.501h-0.536c-0.022 0-0.083 0.059-0.178 0.179-0.096 0.096-0.238 0.344-0.429 0.749-0.214 0.286-0.368 0.477-0.464 0.571l-0.179 0.179c-0.048 0.118-0.096 0.226-0.144 0.32-0.022 0.096-0.058 0.216-0.106 0.358l-0.214 0.286c-0.214 0.19-0.368 0.381-0.464 0.571-0.096 0.166-0.203 0.368-0.322 0.608-0.096 0.213-0.203 0.44-0.322 0.677-0.142 0.245-0.308 0.457-0.499 0.643l-0.001 0.001 0.070 0.394-0.285 0.25c-0.2 0.181-0.368 0.393-0.495 0.631l-0.006 0.012c-0.144 0.238-0.285 0.488-0.429 0.75-0.142 0.285-0.298 0.571-0.464 0.856-0.18 0.302-0.393 0.561-0.64 0.783l-0.003 0.003c-0.166 0.429-0.32 0.762-0.464 1-0.184 0.327-0.397 0.609-0.644 0.858l0-0c-0.285 1.142-0.963 2.368-2.035 3.68-0.031 0.292-0.12 0.558-0.255 0.794l0.005-0.010c-0.12 0.238-0.25 0.464-0.394 0.678-0.048 0.096-0.107 0.203-0.178 0.322l-0.107 0.214-0.107 0.394c-0.144 0.261-0.298 0.475-0.464 0.642-0.144 0.168-0.288 0.322-0.429 0.464-0.080 0.055-0.15 0.114-0.214 0.179l-0 0c-0.044 0.067-0.092 0.126-0.144 0.179l0-0-0.606 0.214zM76.294 7.858c0.048 0.525 0.131 0.976 0.25 1.357 0.118 0.382 0.25 0.752 0.392 1.107 0.12 0.334 0.227 0.667 0.322 1 0.12 0.31 0.203 0.691 0.251 1.144-0.192 0.619-0.334 1.19-0.429 1.714-0.072 0.525-0.155 1.072-0.25 1.643-0.382 0.832-0.752 1.571-1.107 2.214-0.358 0.643-0.643 1.202-0.858 1.678-0.123 0.125-0.229 0.265-0.316 0.419l-0.005 0.010c-0.072 0.144-0.155 0.298-0.25 0.464-0.048 0.072-0.107 0.179-0.179 0.32-0.049 0.11-0.109 0.205-0.181 0.29l0.001-0.002-0.714-0.251-0.144 0.893-0.499 0.144-0.357 0.427c-0.453 0.786-0.928 1.453-1.429 2-0.508 0.528-1.069 0.999-1.677 1.406l-0.037 0.023c-0.609 0.399-1.313 0.781-2.048 1.106l-0.096 0.038c-0.031 0.055-0.913 0.45-1.8 0.836l-0.879 0.341c-0.319-0.042-0.691-0.067-1.068-0.070l-0.004-0-0.821-0.072c-0.451 0-1.011-0.035-1.678-0.107-0.054-0.17-0.168-0.308-0.317-0.392l-0.003-0.002c-0.114-0.063-0.249-0.102-0.392-0.107l-0.002-0c-0.39-0.178-0.707-0.461-0.923-0.812l-0.005-0.009c-0.123-0.226-0.315-0.625-0.497-1.029l-0.075-0.186c-0.136-0.301-0.255-0.535-0.383-0.764l0.026 0.050c-0.149-0.3-0.28-0.534-0.419-0.762l0.027 0.047 0.606-0.178-0.786-0.858c-0.048-0.072-0.108-0.131-0.177-0.178l-0.002-0.001c-0.065-0.064-0.123-0.134-0.174-0.209l-0.003-0.005-0.037-0.571c-0.065-1.332-0.104-2.905-0.107-4.487l-0-0.012c0.024-1.381 0.214-2.608 0.573-3.68v-0.392c0.070-0.523 0.142-0.952 0.214-1.285 0.070-0.358 0.13-0.691 0.178-1 0.072-0.525 0.179-1.013 0.322-1.466 0.333-0.070 0.584-0.202 0.75-0.392 0.166-0.214 0.309-0.405 0.429-0.571 0.333-0.024 0.56 0.024 0.678 0.142s0.238 0.309 0.357 0.571c0.118 0.214 0.262 0.453 0.429 0.715 0.19 0.261 0.464 0.464 0.821 0.606 0.048 0.19 0.107 0.394 0.179 0.608 0.096 0.19 0.19 0.403 0.285 0.642 0.192 0.405 0.358 0.834 0.501 1.286 0.166 0.429 0.262 0.845 0.285 1.25-0.237 0.453-0.427 0.976-0.571 1.571-0.108 0.512-0.197 1.135-0.246 1.77l-0.003 0.053c-0.024 0.595-0.011 1.178 0.035 1.749 0.072 0.549 0.179 1.013 0.322 1.392l0.214 0.466 0.608-0.072c0.714-0.19 1.357-0.392 1.928-0.606 0.595-0.238 1.142-0.512 1.643-0.821 0.499-0.31 0.976-0.667 1.429-1.072 0.451-0.429 0.928-0.917 1.429-1.464 0.499-0.549 0.928-1.168 1.285-1.858 0.381-0.714 0.691-1.453 0.928-2.214 0.262-0.762 0.453-1.512 0.573-2.25 0.122-0.599 0.223-1.333 0.281-2.079l0.004-0.065c0.355-0.102 0.61-0.423 0.61-0.804 0-0.018-0.001-0.036-0.002-0.054l0 0.002-0.072-0.394c-0.096-0.142-0.096-0.309 0-0.499 0.144-0.453 0.477-0.798 1-1.037 0.381 0.24 0.714 0.501 1 0.787 0.309 0.285 0.595 0.571 0.858 0.856zM83.829 24.464c-0.262 0.954-0.501 1.68-0.715 2.179-0.19 0.477-0.488 0.976-0.893 1.501-0.309-0.048-0.523-0.013-0.643 0.107-0.117 0.116-0.245 0.222-0.383 0.314l-0.009 0.006c-0.214 0.048-0.368 0.048-0.464 0s-0.18-0.106-0.251-0.176l0 0c-0.065-0.045-0.158-0.105-0.253-0.163l-0.032-0.018c-0.117-0.046-0.252-0.073-0.394-0.073-0.025 0-0.049 0.001-0.073 0.002l0.003-0c-0.052-0.209-0.113-0.387-0.188-0.559l0.009 0.023c-0.048-0.166-0.203-0.226-0.464-0.179 0.029-0.094 0.046-0.201 0.046-0.313 0-0.053-0.004-0.106-0.011-0.157l0.001 0.006c-0.020-0.133-0.057-0.253-0.111-0.364l0.003 0.008c-0.029-0.154-0.054-0.261-0.081-0.368l0.010 0.048c-0.007-0.043-0.011-0.092-0.011-0.142 0-0.103 0.017-0.202 0.048-0.295l-0.002 0.006c-0.12 0-0.214-0.083-0.286-0.25-0.086-0.2-0.17-0.364-0.262-0.522l0.012 0.023c0.072-0.429 0.144-0.834 0.214-1.216 0.072-0.381 0.155-0.736 0.25-1.070 0.12-0.333 0.214-0.667 0.286-1 0.022-0.104 0.034-0.223 0.034-0.345 0-0.249-0.052-0.487-0.146-0.701l0.004 0.011c0.096 0.070 0.166 0.059 0.214-0.037 0.048-0.118 0.083-0.261 0.107-0.429 0.024-0.19 0.035-0.368 0.035-0.534 0-0.192-0.011-0.346-0.035-0.464 0.237-0.619 0.429-1.251 0.571-1.894 0.166-0.666 0.309-1.32 0.429-1.963 0.142-0.643 0.285-1.274 0.429-1.893 0.15-0.656 0.346-1.228 0.594-1.772l-0.023 0.057c0.072-0.011 0.154-0.018 0.239-0.018 0.223 0 0.435 0.046 0.628 0.129l-0.010-0.004c0.334 0.096 0.536 0.227 0.608 0.394 0.619-0.477 1.168-1.048 1.643-1.715 0.475-0.69 0.963-1.357 1.464-2 0.496-0.637 1.035-1.199 1.627-1.7l0.016-0.014c0.619-0.501 1.392-0.798 2.32-0.893 0.477 0.357 1 0.726 1.573 1.107 0.595 0.357 1.083 0.832 1.464 1.429 0.19 0.096 0.346 0.202 0.464 0.32 0.144 0.096 0.31 0.203 0.501 0.322v0.429c0.285 0.262 0.512 0.571 0.678 0.928 0.19 0.334 0.357 0.704 0.499 1.109 0.144 0.381 0.286 0.773 0.429 1.178 0.144 0.381 0.31 0.75 0.501 1.107-0.042 0.095-0.068 0.205-0.072 0.32l-0 0.001c0 0.072 0.011 0.155 0.035 0.25 0.048 0.096 0.083 0.192 0.107 0.286 0.011 0.059 0.018 0.127 0.018 0.196s-0.007 0.137-0.019 0.203l0.001-0.007c-0.070 1.048-0.416 1.894-1.035 2.536-0.612 0.65-1.333 1.189-2.136 1.588l-0.044 0.020c-0.856 0.405-1.773 0.75-2.749 1.035-0.976 0.286-1.858 0.595-2.643 0.928 0 0.096 0.035 0.144 0.107 0.144 0.096 0 0.13 0.059 0.107 0.178 0.571 0.358 1.024 0.643 1.357 0.858s0.643 0.394 0.928 0.536c0.31 0.144 0.632 0.274 0.965 0.392 0.357 0.096 0.845 0.214 1.464 0.358 0.619 0.142 1.096 0.261 1.429 0.357 0.357 0.070 0.678 0.144 0.965 0.214l0.856 0.144c0.31 0.022 0.739 0.058 1.286 0.106 0.214 0.214 0.392 0.477 0.536 0.786 0.166 0.286 0.272 0.584 0.32 0.893 0.048 0.286 0.061 0.571 0.037 0.858-0.014 0.246-0.106 0.468-0.251 0.645l0.002-0.002c0.022 0.070 0.070 0.107 0.142 0.107 0.043-0.011 0.092-0.018 0.142-0.018s0.1 0.006 0.146 0.019l-0.004-0.001c-0.142 0.095-0.261 0.214-0.354 0.352l-0.003 0.005-0.285 0.429c-0.091 0.137-0.197 0.255-0.319 0.355l-0.003 0.002c-0.132 0.123-0.306 0.202-0.498 0.214l-0.002 0c-0.738 0.285-1.666 0.298-2.784 0.035-1.12-0.238-2.538-0.69-4.251-1.357-1.109-0.418-1.805-0.707-2.493-1.008l0.386 0.151c-0.599-0.296-1.055-0.546-1.501-0.81l0.109 0.060c-0.405-0.279-0.755-0.548-1.089-0.835l0.017 0.014c-0.298-0.276-0.67-0.614-1.045-0.949l-0.098-0.086zM88.934 12.214c-0.261 0.382-0.56 0.726-0.893 1.037-0.309 0.309-0.618 0.63-0.928 0.963-0.288 0.315-0.547 0.666-0.768 1.043l-0.016 0.029c-0.24 0.381-0.406 0.834-0.501 1.357 0.832-0.096 1.702-0.32 2.606-0.678 0.906-0.381 1.762-0.738 2.571-1.072-0.096-0.736-0.357-1.333-0.784-1.784-0.406-0.453-0.835-0.752-1.288-0.894zM115.104 18.856c0.024-0.102 0.075-0.141 0.154-0.115 0.102 0 0.192-0.013 0.269-0.038-0.206-0.214-0.345-0.493-0.383-0.803l-0.001-0.007c-0.040-0.342-0.179-0.645-0.387-0.887l0.002 0.002c0.051-0.128 0.090-0.256 0.115-0.384 0.051-0.13 0.166-0.181 0.346-0.155-0.032-0.203-0.050-0.437-0.050-0.675 0-0.32 0.033-0.633 0.095-0.934l-0.005 0.030c0.102-0.488 0.256-0.949 0.461-1.386 0.232-0.437 0.488-0.861 0.771-1.27 0.307-0.437 0.603-0.874 0.885-1.309 0.232-0.053 0.373-0.026 0.424 0.077 0.051 0.077 0.141 0.051 0.269-0.077 0.411-0.283 0.693-0.592 0.848-0.925 0.154-0.36 0.23-0.744 0.23-1.155 0.232-0.667 0.488-1.322 0.77-1.963 0.329-0.713 0.676-1.319 1.068-1.892l-0.028 0.044c0.372-0.55 0.777-1.029 1.229-1.461l0.003-0.003c0.437-0.437 0.912-0.77 1.424-1.002 0.36-0.307 0.81-0.59 1.349-0.846 0.565-0.256 1.155-0.448 1.771-0.578 0.586-0.146 1.259-0.23 1.952-0.23 0.004 0 0.008 0 0.012 0h-0.001c0.667-0.026 1.285 0.038 1.848 0.192 0.128 0.051 0.206 0.026 0.232-0.077 0.026-0.128 0.090-0.192 0.192-0.192 1.273 0.141 2.433 0.411 3.537 0.802l-0.11-0.034c1.011 0.345 1.882 0.858 2.626 1.511l-0.009-0.007c0.488 0.768 0.95 1.603 1.387 2.502 0.437 0.872 0.77 1.797 1 2.771 0.256 0.95 0.373 1.939 0.347 2.965-0.035 1.119-0.273 2.173-0.678 3.14l0.022-0.058c-0.891 1.115-1.978 2.031-3.217 2.705l-0.055 0.028c-1.283 0.667-2.669 1.232-4.158 1.694-1.462 0.437-2.99 0.795-4.582 1.078-1.565 0.282-3.093 0.59-4.581 0.923 0.026 0.694 0.026 1.438 0 2.234-0.026 0.771-0.115 1.552-0.27 2.349-0.128 0.77-0.333 1.528-0.616 2.272-0.256 0.744-0.616 1.437-1.078 2.080-0.075-0.003-0.162-0.005-0.251-0.005-0.484 0-0.955 0.058-1.406 0.167l0.041-0.008c-0.539 0.128-1.027 0.256-1.464 0.384l-0.616-0.384c-0.201-0.108-0.437-0.177-0.688-0.192l-0.005-0c0.077-0.309 0-0.63-0.23-0.963-0.233-0.377-0.449-0.692-0.679-0.995l0.023 0.032c-0.179-0.276-0.323-0.596-0.417-0.937l-0.006-0.024c-0.051-0.334 0.102-0.629 0.462-0.886-0.206-0.179-0.309-0.462-0.309-0.848 0.095 0.096 0.227 0.155 0.372 0.155 0.004 0 0.008-0 0.013-0h-0.001c-0.050-0.462 0-1.014 0.155-1.656 0.179-0.642 0.32-1.27 0.424-1.888 0.128-0.64 0.154-1.218 0.077-1.731-0.077-0.539-0.384-0.925-0.925-1.155zM125.114 9.846c-0.102 0.282-0.192 0.539-0.269 0.77-0.056 0.225-0.121 0.417-0.201 0.602l0.009-0.025c-0.094 0.216-0.184 0.393-0.284 0.564l0.013-0.025c-0.077 0.179-0.166 0.384-0.27 0.616 0.052 0.155 0.163 0.278 0.305 0.346l0.004 0.002c0.154 0.077 0.256 0.192 0.309 0.346 0.358-0.179 0.718-0.307 1.077-0.384 0.36-0.104 0.72-0.181 1.078-0.232 0.36-0.051 0.72-0.115 1.078-0.192 0.424-0.096 0.797-0.228 1.148-0.398l-0.031 0.014c0.384-0.181 0.784-0.322 1.194-0.426 0.437-0.128 0.859-0.256 1.27-0.384s0.808-0.27 1.194-0.424c0.384-0.179 0.72-0.411 1.002-0.693-0.36-0.334-0.899-0.629-1.616-0.886-0.694-0.25-1.495-0.415-2.329-0.46l-0.021-0.001c-0.225-0.022-0.486-0.034-0.75-0.034-0.621 0-1.226 0.068-1.808 0.198l0.055-0.010c-0.841 0.183-1.572 0.575-2.16 1.12l0.003-0.003zM160.077 8.037c0.026 0.179 0.026 0.32 0 0.422-0.001 0.083-0.015 0.163-0.042 0.237l0.002-0.005v0.269c0 0.077 0.026 0.206 0.078 0.384-0.539 0.874-1.168 1.477-1.888 1.811-0.653 0.295-1.415 0.535-2.209 0.683l-0.063 0.010c-0.821 0.128-1.667 0.27-2.541 0.424-0.96 0.191-1.812 0.539-2.571 1.020l0.031-0.018c-0.136-0.061-0.295-0.097-0.462-0.097s-0.326 0.036-0.47 0.1l0.007-0.003c-0.256 0.128-0.64 0.166-1.155 0.115-0.158 0.154-0.351 0.273-0.566 0.343l-0.010 0.003c-0.284 0.063-0.516 0.129-0.744 0.207l0.049-0.015c0.078 0.17 0.124 0.37 0.124 0.579 0 0.054-0.003 0.107-0.009 0.16l0.001-0.006c0 0.23 0.040 0.424 0.117 0.576 0.898 0.078 1.886 0.066 2.965-0.037 1.104-0.102 2.181-0.166 3.234-0.192 0.026 0.128 0.013 0.218-0.038 0.269-0.051 0.026-0.064 0.090-0.038 0.192 0.179 0.128 0.36 0.296 0.539 0.501l0.539 0.539c0.179 0.179 0.358 0.334 0.539 0.462 0.158 0.078 0.345 0.124 0.542 0.124 0.053 0 0.106-0.003 0.157-0.010l-0.006 0.001c0.102 0.205 0.166 0.437 0.192 0.693 0.016 0.073 0.024 0.157 0.024 0.244 0 0.176-0.037 0.344-0.104 0.495l0.003-0.008c-0.411 0.283-0.821 0.578-1.232 0.886-0.411 0.282-0.848 0.539-1.309 0.77-0.437 0.232-0.912 0.424-1.424 0.578-0.488 0.128-1.040 0.179-1.656 0.154h-0.309c-0.051 0-0.128-0.038-0.23-0.115-0.206 0.128-0.501 0.168-0.886 0.115-0.358-0.051-0.64-0.013-0.848 0.117-0.246-0.104-0.531-0.165-0.831-0.165-0.073 0-0.145 0.004-0.217 0.011l0.009-0.001c-0.014 0-0.030 0-0.047 0-0.355 0-0.696-0.056-1.016-0.16l0.023 0.007c-0.411 0.539-0.784 1.117-1.117 1.733-0.3 0.542-0.598 1.189-0.85 1.859l-0.035 0.105c0.872 0.128 1.592 0.181 2.155 0.155 0.592-0.026 1.142-0.064 1.656-0.115 0.514-0.078 1.040-0.142 1.579-0.192 0.539-0.078 1.219-0.104 2.040-0.078 0.514-0.282 1.117-0.462 1.811-0.539 0.718-0.102 1.373-0.256 1.963-0.462 0.205 0.077 0.384 0.219 0.539 0.424 0.154 0.179 0.294 0.36 0.422 0.539 0.155 0.154 0.309 0.294 0.464 0.424 0.125 0.101 0.286 0.163 0.461 0.163 0.040 0 0.080-0.003 0.119-0.010l-0.004 0.001c0.1 0.101 0.169 0.233 0.192 0.38l0 0.004c0.053 0.128 0.091 0.258 0.117 0.386s0.064 0.245 0.115 0.347c0.077 0.077 0.192 0.102 0.346 0.077-0.384 0.848-0.832 1.502-1.347 1.963-0.476 0.426-1.040 0.766-1.659 0.99l-0.036 0.011c-0.64 0.23-1.36 0.411-2.155 0.539-0.771 0.128-1.632 0.282-2.581 0.462-0.070 0.021-0.151 0.033-0.234 0.033-0.124 0-0.241-0.026-0.347-0.073l0.005 0.002c-0.152-0.049-0.326-0.077-0.507-0.077-0.012 0-0.024 0-0.035 0l0.002-0c-0.59 0.128-1.296 0.243-2.117 0.346-0.822 0.102-1.656 0.141-2.502 0.115-0.872-0.023-1.705-0.148-2.5-0.363l0.075 0.017c-0.771-0.181-1.4-0.514-1.888-1.002-0.19-0.161-0.336-0.369-0.419-0.606l-0.003-0.010c-0.053-0.256-0.219-0.448-0.501-0.578-0.036-0.427-0.091-0.809-0.166-1.183l0.011 0.067c0.043 0.353-0.038-0.077-0.116-0.509l-0.115-0.762c-0.077-0.462-0.141-0.912-0.192-1.347-0.007-0.094-0.011-0.203-0.011-0.314 0-0.311 0.032-0.615 0.093-0.909l-0.005 0.029c0.077-0.386 0.23-0.733 0.462-1.040 0.183-0.2 0.295-0.467 0.295-0.761 0-0.085-0.009-0.168-0.027-0.248l0.001 0.008c0.128-0.026 0.205-0.090 0.232-0.192 0.024-0.128 0.128-0.181 0.307-0.154 0.154-0.464 0.32-0.899 0.501-1.31 0.179-0.41 0.36-0.808 0.539-1.194 0.205-0.384 0.397-0.77 0.576-1.155 0.208-0.41 0.4-0.859 0.579-1.347-0.331-0.299-0.603-0.657-0.8-1.058l-0.009-0.021c-0.131-0.332-0.25-0.732-0.337-1.143l-0.009-0.050c-0.060-0.287-0.127-0.707-0.181-1.13l-0.011-0.102c-0.060-0.494-0.155-0.937-0.285-1.365l0.015 0.056c0.256-0.384 0.565-0.693 0.925-0.925 0.384-0.256 0.795-0.461 1.232-0.616 0.435-0.154 0.912-0.282 1.424-0.384 0.512-0.104 1.053-0.219 1.616-0.347 0.677-0.239 1.592-0.504 2.523-0.727l0.213-0.043c0.821-0.181 1.616-0.32 2.387-0.424 0.795-0.128 1.616-0.243 2.464-0.347 0.848-0.102 1.808-0.256 2.888-0.461 0.23 0.23 0.448 0.346 0.654 0.346 0.102-0.23 0.218-0.294 0.346-0.192 0.154 0.077 0.219 0 0.192-0.23 0.258 0.435 0.579 0.808 0.963 1.115 0.411 0.283 0.861 0.528 1.349 0.733z">
      </path>
      <path fill="#303030" style="fill: var(--color1, #303030)"
        d="M181.061 11.194c-0.737 0.004-1.457 0.060-2.161 0.164l0.083-0.010c-1.005 0.102-1.756 0.198-2.504 0.308l0.308-0.037c-0.514 0.077-1.014 0.141-1.502 0.192-0.3 0.038-0.738 0.079-1.179 0.11l-0.092 0.005c-0.342 1.084-0.721 2.002-1.166 2.88l0.049-0.107c-0.205 0.437-0.397 0.885-0.578 1.347-0.154 0.437-0.307 0.912-0.462 1.424-0.256 0.411-0.474 0.797-0.654 1.157-0.154 0.333-0.282 0.718-0.384 1.155-0.309 0.384-0.539 0.795-0.693 1.232-0.115 0.283-0.234 0.642-0.332 1.010l-0.016 0.069-0.154 0.461c-0.155 0.154-0.245 0.283-0.27 0.384-0.041 0.096-0.107 0.175-0.19 0.231l-0.002 0.001c-0.033 0.316-0.129 0.604-0.276 0.858l0.006-0.010c-0.051 0.128-0.090 0.256-0.115 0.384-0.020 0.068-0.034 0.148-0.038 0.229l-0 0.003c0 0.256-0.064 0.422-0.192 0.501 0.012 0.064 0.019 0.137 0.019 0.211s-0.007 0.148-0.020 0.218l0.001-0.007-0.077 0.386c-0.077 0.309-0.102 0.552-0.077 0.731 0.077 0.102 0.141 0.192 0.192 0.27 0.077 0.077 0.128 0.179 0.154 0.307 0.154 0.102 0.27 0.168 0.347 0.192 0.102 0.078 0.256 0.168 0.462 0.27l0.346 0.384c0.128 0.746 0.013 1.336-0.346 1.773-0.386 0.488-1.040 0.731-1.965 0.731h-0.462c-0.096-0.085-0.173-0.187-0.228-0.303l-0.002-0.006c-0.344-0.123-0.51-0.188-0.675-0.254l0.174 0.062c-0.146-0.067-0.264-0.172-0.344-0.304l-0.002-0.003c-0.457-0.204-0.722-0.333-0.986-0.466l0.177 0.081-0.346-0.192v-0.464c-0.173-0.22-0.317-0.474-0.418-0.749l-0.006-0.019c-0.061-0.21-0.128-0.495-0.182-0.786l-0.010-0.062c-0.057-0.258-0.124-0.477-0.205-0.69l0.011 0.034c-0.049-0.204-0.129-0.383-0.234-0.544l0.004 0.006c-0.051-1.488 0.090-2.747 0.424-3.773 0.333-1.027 0.68-2.016 1.038-2.965l0.616-1.541c0.206-0.539 0.386-1.091 0.539-1.656l0.347-0.384c0.179-0.411 0.32-0.746 0.424-1.002l0.384-0.848c0.055-0.12 0.121-0.285 0.18-0.453l0.014-0.046c0.077-0.181 0.141-0.334 0.192-0.464-0.154 0-0.296 0.014-0.424 0.040-0.128 0-0.256 0.013-0.384 0.038-0.219 0.035-0.363 0.062-0.506 0.091l0.082-0.014h-0.386c-0.018 0.001-0.039 0.001-0.060 0.001-0.115 0-0.227-0.014-0.334-0.042l0.009 0.002c-0.283 0.128-0.59 0.192-0.925 0.192h-0.616c-0.045-0.024-0.097-0.038-0.153-0.038h-0c-0.018-0.001-0.039-0.001-0.060-0.001-0.201 0-0.392 0.043-0.564 0.12l0.009-0.004h-1.272c-0.070 0.003-0.135 0.017-0.196 0.040l0.004-0.001h-0.192c-0.205-0.001-0.405-0.015-0.601-0.041l0.024 0.003c-0.249-0.067-0.466-0.159-0.667-0.276l0.013 0.007c-0.309-0.411-0.514-0.629-0.616-0.656l-0.347-0.461c-0.026-0.16-0.066-0.302-0.12-0.438l0.005 0.014c-0.031-0.082-0.084-0.249-0.133-0.417l-0.021-0.084c-0.102-0.256-0.206-0.525-0.309-0.808-0.074-0.304-0.116-0.653-0.116-1.011 0-0.024 0-0.047 0.001-0.071l-0 0.004c0.012-0.173 0.068-0.33 0.156-0.465l-0.002 0.004c0.077-0.104 0.141-0.192 0.192-0.27l0.117-0.576 0.501 0.037h1.077c0.822 0 1.656-0.026 2.504-0.077 0.846-0.077 1.72-0.154 2.618-0.23l1.541-0.155 1.654-0.154c0.104-0.23 0.206-0.448 0.309-0.654l0.386-0.192c0.461-0.026 0.782 0.038 0.962 0.192 0.206 0.128 0.373 0.256 0.501 0.384l1.694-0.154c0.59-0.077 1.181-0.166 1.771-0.269 0.874-0.128 1.746-0.243 2.618-0.347 0.772-0.095 1.669-0.151 2.578-0.154h0.003c0.358 0 0.706 0.013 1.040 0.038 0.333 0.026 0.642 0.064 0.923 0.115l0.386 0.27c0.077 0.154 0.179 0.294 0.307 0.424l0.462 0.384c0.309 0.283 0.616 0.616 0.925 1.002 0.307 0.384 0.422 0.949 0.346 1.694-0.205 0.307-0.358 0.488-0.461 0.539l-0.347 0.461-0.386-0.038c-0.004-0-0.009-0-0.014-0-0.147 0-0.288 0.028-0.416 0.080l0.008-0.003c-0.148 0.030-0.277 0.071-0.4 0.122l0.014-0.005-0.309 0.154c-0.064 0.018-0.18 0.045-0.298 0.069l-0.048 0.008h-0.578c-0.122-0.024-0.263-0.038-0.407-0.038-0.006 0-0.012 0-0.018 0h0.001z">
      </path>
      <path fill="#ffc107" style="fill: var(--color2, #ffc107)"
        d="M35.027 12.55c2.182 1.018 4.899-0.176 6.058-2.662l0.059-0.126c1.125-2.408 1.787-3.829-0.357-4.829-0.48-0.217-1.045-0.405-1.631-0.535l-0.059-0.011-0.026-0.026-0.058 0.008c-2.304-0.48-4.93-0.123-5.84 1.83-1.16 2.485-0.328 5.334 1.853 6.352zM34.56 7.44c0.672-0.294 1.606-0.461 2.8-0.222 1.026 0.206 1.859 0.189 2.502 0.072 0.045 0.598-0.066 1.245-0.354 1.862-0.754 1.616-2.432 2.432-3.744 1.821-1.174-0.549-1.661-2.061-1.205-3.533zM29.581 11.661c-0.768 0.784-1.754 1.176-2.778 1.104-0.333-0.022-1.072-0.39-1.542-0.626-0.017-0.013-0.116-0.062-0.216-0.111l-0.086-0.038c-1.434-0.669-1.723-1.856-1.597-3.715 0.163-2.334 1.968-4.117 4.027-3.974 0.963 0.066 1.478 0.766 2.078 1.584 0.473 0.656 0.57 0.786 0.668 0.915l-0.372-0.517c0.568 0.755 1.136 1.51 1.067 2.507-0.068 1.12-0.531 2.12-1.251 2.872l0.002-0.002zM27.269 6.038c-1.101-0.077-2.074 0.981-2.17 2.357-0.093 1.376 0.726 2.557 1.824 2.632 0.507 0.035 1.008-0.171 1.413-0.584 0.44-0.451 0.709-1.080 0.757-1.773 0.006-0.071 0.010-0.153 0.010-0.237 0-0.608-0.194-1.17-0.523-1.629l0.006 0.008c-0.192-0.265-0.441-0.477-0.731-0.619l-0.012-0.005c-0.168-0.081-0.363-0.135-0.569-0.15l-0.005-0zM36.832 14.264l0.043 0.019c-0.94-0.449-1.992-0.701-3.103-0.701-1.436 0-2.774 0.42-3.869 1.127l-5.062 3.203c-0.808 0.515-1.442 1.278-1.806 2.213l0.011-0.031c-0.206 0.519-0.319 1.084-0.319 1.676 0 0.437 0.062 0.859 0.169 1.227l0.008 0.032c0.266 0.943 0.83 1.762 1.592 2.357l-0.010-0.007c0.751 0.591 1.692 0.951 2.722 0.972h0.064l0.014 0c2.573 0.082 4.874 1.243 6.472 3.056l0.004 0.005c0.629 0.717 1.48 1.234 2.476 1.451l-0.030-0.006c0.32 0.071 0.653 0.109 0.994 0.109 0.687 0 1.339-0.152 1.895-0.414 0.902-0.41 1.632-1.085 2.112-1.952l-0.012 0.023c0.372-0.66 0.585-1.421 0.585-2.233 0-0.217-0.015-0.431-0.042-0.615l-0.797-5.917-0.004-0.037c-0.334-2.456-1.906-4.518-4.109-5.556zM39.896 25.122c-2.739-1.088-6.784-1.894-7.115 1.173-1.567-1.016-3.473-1.638-5.52-1.686l-0.013-0h-0.043c-1.256-0.042-2.301-0.899-2.626-2.057l-0.005-0.020c-0.067-0.229-0.106-0.492-0.106-0.765 0-0.899 0.421-1.7 1.076-2.216l0.006-0.005c0.645-0.458 1.712-0.654 3.808 0.245 3.2 1.371 3.238-0.571 2.285-1.715 1.144 0 3.542-0.342 4-1.714 0.056-0.146 0.088-0.315 0.088-0.491 0-0.066-0.005-0.131-0.013-0.195l0.001 0.007c1.868 0.716 3.225 2.375 3.498 4.378l0.003 0.028 0.677 5.032zM43.616 17.546c-0.362-0.171-0.672-0.385-0.942-0.642l0.002 0.002c-1.606-1.518-1.509-4.24 0.216-6.064 0.764-0.825 1.804-1.383 2.973-1.529l0.024-0.002c0.768-0.083 0.941 0.195 1.197 0.611 0.131 0.216 0.288 0.469 0.56 0.725 0.229 0.218 0.531 0.429 0.845 0.648 0.781 0.546 1.632 1.139 1.589 1.976-0.079 1.203-0.583 2.275-1.361 3.080l0.001-0.001c-1.421 1.504-3.51 1.938-5.101 1.197zM46.078 11.040c-0.765 0.1-1.432 0.462-1.918 0.993l-0.002 0.002c-1.066 1.128-1.309 3.296-0.4 4.157 0.907 0.858 2.362 0.555 3.427-0.573 0.534-0.565 1.118-1.734 1.155-2.442 0.032-0.653-0.179-1.232-0.6-1.63-0.421-0.397-1.011-0.576-1.662-0.507zM49.696 20.536c-1.232-1.888-3.424-1.862-5.48-0.746s-2.662 2.877-1.68 4.688c0.36 0.662 0.917 1.158 1.579 1.467 1.154 0.538 2.63 0.509 3.938-0.2 2.056-1.117 2.624-3.397 1.642-5.21zM47.222 24.216c-1.213 0.656-2.629 0.403-3.154-0.566-0.386-0.71-0.189-1.611 0.421-2.301 1.232-0.211 2.79-0.403 3.808-0.336 0.064 0.078 0.12 0.16 0.168 0.251 0.525 0.97-0.032 2.293-1.243 2.95z">
      </path>
    </symbol>
  </defs>
</svg>